# xmcd
#
# Track frame offsets:
#	150
#	17100
#	34795
#	51897
#	68477
#	87325
#	100370
#	117550
#	136597
#	150940
#	167495
#	187277
#	206567
#
# Disc length: 3030 seconds
#
# Revision: 0
# Processed by: cddbd v1.5.1PL2 Copyright (c) Steve Scherf et al.
# Submitted via: audiograbber 1.80
#
DISCID=a90bd40d
DTITLE=Darren Coggan - Hometown
DYEAR=1997
DGENRE=Country
TTITLE0=Back In My Hometown
TTITLE1=The Night Is Still Young
TTITLE2=Hearts On Fire
TTITLE3=Emily Rose
TTITLE4=Brown Eyed Girl
TTITLE5=Silence And Me (Joe Byrne)
TTITLE6=Sleepless Nights
TTITLE7=Loosen My Necktie
TTITLE8=Say Goodbye Junee
TTITLE9=Rosie
TTITLE10=Big Springs
TTITLE11=Mitch
TTITLE12=The Heartland
EXTD=
EXTT0=
EXTT1=
EXTT2=
EXTT3=
EXTT4=
EXTT5=
EXTT6=
EXTT7=
EXTT8=
EXTT9=
EXTT10=
EXTT11=
EXTT12=
PLAYORDER=
